<svg width="54" height="54" viewBox="0 0 54 54" fill="none" xmlns="http://www.w3.org/2000/svg">
<rect x="0" y="0" width="42" height="42" rx="21" fill="#196164" opacity="0.15"/>
<circle cx="20" cy="34" r="20" fill="#196164"/>
<path d="M37.894 37.2H35.122V33.336C28.234 32.748 25 29.01 25 24.096V23.844H28.024V24.39C28.024 28.422 30.544 30.606 37.138 30.606C42.766 30.606 45.328 29.052 45.328 25.86C45.328 22.71 43.438 21.576 39.322 20.736L33.358 19.602C28.78 18.72 25.126 16.788 25.126 12.126C25.126 8.51398 28.024 4.90197 35.122 4.48197V0.659973H37.894V4.48197C44.824 4.98597 47.932 8.97597 47.932 13.764V14.016H44.908V13.512C44.908 9.43797 42.388 7.25397 36.256 7.25397C30.67 7.25397 28.15 8.84997 28.15 11.916C28.15 15.108 29.998 16.074 34.156 16.956L40.078 18.132C45.118 19.098 48.352 21.24 48.352 25.608C48.352 29.514 45.16 33.168 37.894 33.42V37.2Z" fill="#A2D732" transform="translate(-10, 5) scale(0.9)"/>
</svg>
